<svg width="20" height="22" viewBox="0 0 20 22" fill="none" xmlns="http://www.w3.org/2000/svg">
<path fill-rule="evenodd" clip-rule="evenodd" d="M9.69303 0.605324C9.87358 0.464892 10.1264 0.464892 10.307 0.605324L19.307 7.60532C19.4288 7.70005 19.5 7.8457 19.5 8V19C19.5 20.3807 18.3807 21.5 17 21.5H3C1.61929 21.5 0.5 20.3807 0.5 19V8C0.5 7.8457 0.571236 7.70005 0.69303 7.60532L9.69303 0.605324ZM1.5 8.24454V19C1.5 19.8284 2.17157 20.5 3 20.5H17C17.8284 20.5 18.5 19.8284 18.5 19V8.24454L10 1.63343L1.5 8.24454Z" fill="#414141"/>
</svg>
